<svg width="300" height="300" viewBox="0 0 300 300" fill="none" xmlns="http://www.w3.org/2000/svg">
<path d="M157.998 159.647C134.89 172.375 119.332 196.132 119.332 223.36C119.332 224.333 119.346 225.3 119.388 226.26C121.279 272.512 194.717 272.512 196.608 226.26C196.65 225.3 196.664 224.333 196.664 223.36C196.671 196.132 181.106 172.375 157.998 159.647V159.647Z" fill="#00A3FF"/>
<path d="M89.1685 40C60.9844 55.2329 42 83.6661 42 116.253C42 117.418 42.0258 118.575 42.0775 119.732C44.3752 175.08 133.953 175.08 136.259 119.732C136.302 118.575 136.328 117.418 136.328 116.253C136.328 83.6661 117.352 55.2329 89.1685 40V40Z" fill="#00A3FF"/>
<path d="M222.158 70.3108C201.335 81.7355 187.316 103.06 187.316 127.501C187.316 128.374 187.335 129.242 187.367 130.11C189.071 171.621 255.245 171.621 256.949 130.11C256.987 129.242 257 128.374 257 127.501C257.006 103.06 242.987 81.7355 222.158 70.3108V70.3108Z" fill="#00A3FF"/>
</svg>
